# xmcd
#
# Track frame offsets: 
#        150
#        11633
#        23017
#        31699
#        43515
#        57770
#        70764
#        84914
#        98657
#        112362
#        124028
#        133626
#        157404
#        170770
#        186608
#        199183
#        209662
#        220233
#        229557
#        242658
#        256131
#        268876
#        281622
#        294639
#        305888
#        318627
#        328636
#
# Disc length: 4550 seconds
#
# Revision: 0
# Processed by: cddbd v1.5.2PL0 Copyright (c) Steve Scherf et al.
# Submitted via: ExactAudioCopyFreeDBPlugin 1.0
#
DISCID=9e11c41b
DTITLE=Various Artist - Tumbling Tumbleweeds - Disk3
DYEAR=1900
DGENRE=
TTITLE0=The Sons of the Pioneers - Along the Santa Fe Trail
TTITLE1=The Sons of the Pioneers - Twilight on the Trail
TTITLE2=The Sons of the Pioneers - Empty Saddles
TTITLE3=Eddy Arnold - When It's Round-up Time in Heaven
TTITLE4=The Sons of the Pioneers - Carry Me Back to the Lone Prairie
TTITLE5=Jimmy Wakely - There's a Gold Mine in the Sky
TTITLE6=Gene Autry - A Cowboy's Heaven
TTITLE7=Rex Allen - The Last Round-up
TTITLE8=Tex Ritter - Bury Me Not on the Lone Prairie
TTITLE9=Tex Williams - River of No Return
TTITLE10=Merle Travis - John Henry
TTITLE11=Jim Reeves - The Shifting, Whispering Sands
TTITLE12=Jimmie Rodgers - Frankie and Johnnie
TTITLE13=Eddy Arnold - The Ballad of Jesse James
TTITLE14=The Sons of the Pioneers - The Strawberry Roan
TTITLE15=Tex Ritter - Billy the Kid
TTITLE16=Al Calola - Theme from "Bonanza"
TTITLE17=Al Calola - Theme from "The Magnificent Seven"
TTITLE18=Warren Barker - Theme from "Gunsmoke"
TTITLE19=Hank Thompson - Wildwood Flower
TTITLE20=Hugo Montenegro - The Good, the Bad and the Ugly
TTITLE21=Tex Ritter - High Noon
TTITLE22=Bob Wills - San Antonio Rose
TTITLE23=Bob Wills - Panhandle Rag
TTITLE24=Danny Davis - Sugarfoot Rag
TTITLE25=Bob Wills - Across the Alley from the Alamo
TTITLE26=Pee Wee King - Steel Guitar Rag
EXTD=
EXTT0=
EXTT1=
EXTT2=
EXTT3=
EXTT4=
EXTT5=
EXTT6=
EXTT7=
EXTT8=
EXTT9=
EXTT10=
EXTT11=
EXTT12=
EXTT13=
EXTT14=
EXTT15=
EXTT16=
EXTT17=
EXTT18=
EXTT19=
EXTT20=
EXTT21=
EXTT22=
EXTT23=
EXTT24=
EXTT25=
EXTT26=
PLAYORDER=
